# xmcd
#
# Track frame offsets:
# 150
# 694
# 33419
# 60929
# 78416
# 105995
# 131120
# 161420
# 193839
# 218530
# 251691
# 284004
# 315034
#
# Disc length: 4205 seconds
#
#
# Revision: 0
# Processed by: cddbd v1.5.2PL0 Copyright (c) Steve Scherf et al.
# Submitted via: FreeRIP 2.96 
#
DISCID=a4106b0d
DTITLE=Ingrid Noll - Die Apothekerin
DYEAR=1997
DGENRE=Speech
TTITLE0=CD2 Fortsetzung
TTITLE1=12 Die Apothekerin
TTITLE2=13 Die Apothekerin
TTITLE3=14 Die Apothekerin
TTITLE4=15 Die Apothekerin
TTITLE5=16 Die Apothekerin
TTITLE6=17 Die Apothekerin
TTITLE7=18 Die Apothekerin
TTITLE8=19 Die Apothekerin
TTITLE9=20 Die Apothekerin
TTITLE10=21 Die Apothekerin
TTITLE11=22 Die Apothekerin
TTITLE12=CD3 einlegen
EXTD=gelesen von Sylvia Jost
EXTT0=
EXTT1=
EXTT2=
EXTT3=
EXTT4=
EXTT5=
EXTT6=
EXTT7=
EXTT8=
EXTT9=
EXTT10=
EXTT11=
EXTT12=
PLAYORDER=
